<svg width="181" height="123" viewBox="0 0 181 123" fill="none" xmlns="http://www.w3.org/2000/svg">
<g clip-path="url(#clip0_169_3)">
<g opacity="0.56">
<path d="M0.628553 98.3417C0.68752 98.5849 0.738894 98.8194 0.805107 99.0625C1.79821 102.95 3.73304 107.118 6.72699 111.491L21.8295 111.447H22.6241L104.102 111.219H105.051L120.838 111.175L121.861 111.168L172.001 111.028C172.001 111.028 185.023 95.7257 167.588 81.4073C159.415 74.7042 148.432 75.7407 140.067 74.8732C139.707 74.8293 139.347 74.7926 138.994 74.7408C130.129 73.5871 124.664 69.6548 129.703 50.3611C130.394 47.7151 130.652 45.047 130.512 42.4157C130.497 42.0482 130.468 41.6808 130.431 41.3131C128.761 23.4085 109.112 7.95142 86.4697 17.1022C86.0572 17.264 85.6455 17.4403 85.2337 17.6233C80.2313 19.8364 75.0963 23.2541 69.9913 28.12C65.7173 32.1918 61.9951 35.8742 58.692 39.2184C58.3168 39.6006 57.9491 39.9755 57.5813 40.3503C41.6768 56.5792 36.1891 64.4364 27.6925 69.0521C27.4644 69.1697 27.2437 69.2947 27.0084 69.4123C24.544 70.6766 21.8148 71.6909 18.4971 72.5729C14.922 73.5209 11.7882 74.8883 9.16921 76.6081C8.94855 76.7549 8.73524 76.9016 8.52922 77.0491C1.66579 81.8777 -1.4311 89.316 0.628553 98.3417Z" fill="#E4EBF7" fill-opacity="0.8"/>
<path d="M8.21582 77.0585C19.4417 86.062 29.5565 90.5971 38.4356 90.5971C40.6572 90.5971 42.8053 90.3101 44.8724 89.7441C58.1579 86.0986 68.2066 70.8032 74.732 44.299C77.623 32.517 81.7348 23.6971 86.1559 17.1113C85.7442 17.2731 85.3324 17.4495 84.9199 17.6333C80.705 24.1822 76.8059 32.8038 74.0181 44.1226C67.5592 70.355 57.6872 85.4664 44.6811 89.0384C34.6251 91.7948 22.6122 87.62 8.85581 76.6169C8.63515 76.7643 8.42184 76.9111 8.21582 77.0585Z" fill="white"/>
<path d="M26.9941 69.4105C30.3781 72.6959 33.659 74.3496 36.8149 74.3496C37.5285 74.3496 38.2347 74.2618 38.9409 74.0928C48.4231 71.7993 54.8084 54.5854 58.6778 39.2166C58.3026 39.5988 57.9348 39.9737 57.5671 40.3485C53.6976 55.1882 47.5477 71.2553 38.7643 73.3793C35.2775 74.2172 31.5624 72.7693 27.6783 69.0503C27.4502 69.168 27.2295 69.2929 26.9941 69.4105Z" fill="white"/>
<path d="M103.928 111.225H104.877C98.749 103.692 95.6893 95.6142 95.8877 87.2646C96.2554 71.822 107.65 58.6507 118.788 52.4474C123.651 49.7352 127.417 46.2219 130.338 42.4219C130.322 42.0544 130.294 41.687 130.257 41.3193C127.328 45.2958 123.481 48.9927 118.428 51.8079C107.113 58.1142 95.5271 71.5133 95.1521 87.2495C94.9978 93.7325 96.7703 102.199 103.928 111.225Z" fill="white"/>
<path d="M120.806 111.18L121.829 111.173C118.098 106.77 115.678 101.89 115.833 97.1052C116.039 90.7546 120.622 85.4188 129.45 81.2512C133.23 79.4652 136.762 77.2893 140.036 74.8789C139.675 74.8343 139.314 74.7977 138.961 74.7466C135.909 76.944 132.628 78.9286 129.133 80.5822C120.033 84.8822 115.311 90.4316 115.097 97.0758C114.936 102.045 117.282 106.888 120.806 111.18Z" fill="white"/>
</g>
<path d="M73.111 75.4917C73.111 75.4917 89.9115 84.6678 97.4948 92.1708C97.4948 92.1708 106.796 95.2638 108.014 82.9717C108.014 82.9717 112.591 82.4725 113.944 88.8376C113.944 88.8376 123.416 88.0564 127.337 81.9035C127.337 81.9035 131.401 88.0845 125.54 92.3743C125.54 92.3743 131.853 92.4024 134.25 88.6995C134.25 88.6995 137.247 96.706 133.562 99.253C129.876 101.801 127.429 100.293 127.429 100.293C127.429 100.293 132.689 105.448 135.714 105.485C135.714 105.485 130.708 113.196 118.992 107.219C118.992 107.219 113.339 104.602 104.985 108.767C104.985 108.767 111.815 118.322 99.679 121.202C99.679 121.202 94.2807 107.334 81.2805 101.856C81.2805 101.856 84.0835 92.2542 77.5862 87.8622C77.5581 87.8579 72.6127 80.6555 73.111 75.4917Z" fill="#607BB0"/>
<path d="M36.079 80.2298C36.5085 79.9392 40.5678 74.3869 41.8332 81.8158C42.0456 83.0638 41.0896 84.0715 41.2559 85.5878C42.7845 99.4012 43.7451 122.987 44.4239 122.724C52.0391 124.975 84.2964 113.173 83.8529 98.1345C83.5803 88.9441 79.1008 83.0365 73.2915 79.6658C74.0674 79.2544 74.8065 78.8293 75.5038 78.3761C76.0764 78.8573 76.6519 79.3501 77.2309 79.8557C80.644 81.6446 83.5796 84.2247 85.7927 87.3817C85.6492 87.2803 86.3285 88.1722 86.2131 88.1586C89.1589 93.1189 89.9903 102.115 89.9903 102.115C90.0798 102.374 90.1987 102.623 90.3458 102.855C90.5167 109.4 87.1131 122.881 87.1131 122.881L26.8059 122.65C26.8059 122.65 23.407 111.166 23.5733 109.396C23.698 108.175 23.721 96.5535 26.1733 90.9782C28.1328 86.356 31.6338 82.5567 36.079 80.2298Z" fill="#365AA1"/>
<path d="M41.9993 86.6654L36.5269 88.3342C37.4274 86.1245 39.7226 82.523 41.3574 80.3967C41.9254 80.5766 42.0086 81.0204 42.5904 81.1822C42.3271 82.7308 41.7915 85.329 41.9993 86.6654Z" fill="#F28F4C"/>
<path d="M38.3461 84.6866L73.656 99.7804L74.9489 90.0353C74.9489 90.0353 76.2282 91.0618 76.2282 94.6583C79.9225 88.5881 76.4409 83.2905 72.8433 79.8976L73.3048 79.6616C79.1148 83.0315 83.8662 88.9348 83.8662 98.1296C83.8662 111.411 61.4734 124.675 50.5148 122.631C48.275 122.22 45.5319 123.042 44.4374 122.705C40.3089 116.64 36.6467 103.335 35.8201 99.9329C33.4464 90.2483 38.3461 84.6866 38.3461 84.6866Z" fill="#F28F4C"/>
<path d="M76.2283 94.6583C76.2283 91.0712 74.949 90.0354 74.949 90.0354L73.6561 99.7805L71.8644 96.4515L68.858 102.055L70.1788 84.7558L70.2989 84.7004L70.1881 84.622V84.5896H70.1511L66.8076 82.2461C68.8875 81.6534 70.9069 80.8658 72.839 79.8926C76.4273 83.2949 79.9233 88.5932 76.2283 94.6583Z" fill="white"/>
<path d="M70.1743 84.7556L70.1882 84.6218L70.2989 84.7002L70.1743 84.7556Z" fill="#FDECDD"/>
<path d="M46.1464 95.2451L46.913 90.6221C47.1716 93.4375 56.1491 102.406 56.1491 102.406L55.8905 97.2836C55.8905 100.099 65.1036 109.576 65.1036 109.576L72.0307 96.7707L73.8222 100.099L75.1014 90.3912C75.1014 90.3912 76.3807 91.4127 76.3807 95.0142C78.1034 89.4432 78.5007 87.8025 76.5285 84.6448C72.8616 86.4941 65.8563 87.2522 60.3054 87.8298C54.168 88.4772 48.3261 88.4261 42.0732 84.7095C40.7894 92.014 46.1464 95.2451 46.1464 95.2451Z" fill="white"/>
<path d="M76.2051 108.846C80.2275 108.846 83.4877 105.581 83.4877 101.555C83.4877 97.5288 80.2275 94.2654 76.2051 94.2654C72.1827 94.2654 68.9224 97.5288 68.9224 101.555C68.9224 105.581 72.1827 108.846 76.2051 108.846Z" fill="#C1C1BF"/>
<path d="M76.9718 109.396C80.961 109.396 84.1945 106.159 84.1945 102.165C84.1945 98.1726 80.961 94.9358 76.9718 94.9358C72.9826 94.9358 69.749 98.1726 69.749 102.165C69.749 106.159 72.9826 109.396 76.9718 109.396Z" fill="white"/>
<path d="M73.416 100.94V102.165V103.395L75.1799 105.24H76.7223V104.431H75.3277L74.0023 103.108V102.165V101.227L75.3277 99.9047H76.7223V99.0962H75.1799L73.416 100.94Z" fill="#C71617"/>
<path d="M74.8519 98.3474L72.6172 100.672V102.165V103.664L74.8519 105.989H76.7225V105.54H74.9998L73.0095 103.548V102.165V100.788L74.9998 98.7955H76.7225V98.3474H74.8519Z" fill="#C71617"/>
<path d="M80.5275 103.395V102.165V100.94L78.7637 99.0962H77.2212V99.9047H78.6158L79.9412 101.227V102.165V103.108L78.6158 104.431H77.2212V105.24H78.7637L80.5275 103.395Z" fill="#28347C"/>
<path d="M79.0918 105.989L81.3265 103.664V102.165V100.672L79.0918 98.3474H77.2212V98.7955H78.9439L80.9342 100.788V102.165V103.548L78.9439 105.54H77.2212V105.989H79.0918Z" fill="#28347C"/>
<path d="M78.7366 99.1235V100.243C78.5008 100.28 78.2888 100.407 78.1453 100.598C78.0018 100.789 77.9369 101.027 77.965 101.264C77.965 102.23 78.3624 105.494 75.2681 105.106V104.154C75.2681 104.154 76.9447 104.584 76.7968 101.495C76.6584 98.666 78.7366 99.1235 78.7366 99.1235Z" fill="white"/>
<path d="M75.7483 105.235C75.5831 105.235 75.418 105.225 75.2543 105.203H75.1714V104.038L75.2911 104.07C75.4332 104.098 75.5788 104.093 75.7187 104.057C75.8586 104.021 75.9884 103.954 76.0995 103.862C76.323 103.667 76.4838 103.409 76.561 103.123C76.7016 102.597 76.7521 102.052 76.7088 101.51C76.6583 100.502 76.8797 99.7846 77.365 99.3732C77.559 99.2236 77.7833 99.1157 78.022 99.0574C78.2599 98.9992 78.5087 98.992 78.7503 99.0358H78.8289V100.326H78.7366C78.7085 100.326 78.053 100.395 78.053 101.251C78.053 101.338 78.053 101.435 78.053 101.556C78.0804 102.378 78.1265 103.908 77.2446 104.708C76.8307 105.067 76.2956 105.256 75.7483 105.235ZM75.3654 105.023C75.6747 105.077 75.9935 105.064 76.2978 104.984C76.6021 104.905 76.8855 104.76 77.1292 104.56C77.9419 103.816 77.9001 102.346 77.8727 101.556C77.8727 101.435 77.8727 101.333 77.8727 101.246C77.8583 101.064 77.89 100.881 77.965 100.714C78.04 100.548 78.1561 100.403 78.3025 100.293C78.4056 100.223 78.5217 100.173 78.6436 100.146V99.1883C78.4388 99.1588 78.2304 99.1711 78.0306 99.2243C77.8301 99.2775 77.6434 99.3703 77.4804 99.4983C77.0463 99.8681 76.8523 100.529 76.8985 101.472C76.9583 102.725 76.7319 103.571 76.2242 103.987C75.9848 104.183 75.6776 104.278 75.3697 104.251L75.3654 105.023Z" fill="#C71617"/>
<path opacity="0.5" d="M86.5866 59.5889C86.5866 59.5889 87.723 61.9836 87.6394 62.8249C87.5565 63.6663 85.0116 63.7079 85.1321 62.566C85.2013 61.7478 86.5866 59.5889 86.5866 59.5889Z" fill="white"/>
<path opacity="0.5" d="M84.8049 56.2236C84.8049 56.2236 85.5346 57.3336 85.5483 57.7636C85.562 58.1938 84.3059 58.3787 84.2871 57.8053C84.3888 57.2575 84.5633 56.7256 84.8049 56.2236Z" fill="white"/>
<path d="M38.8866 17.8905C38.8866 18.3528 38.8497 19.0093 38.822 19.809L32.8185 13.0966C31.227 15.2275 30.0705 17.6514 29.415 20.2298L19.4814 14.747L64.0136 0L92.1837 15.0382L90.2396 16.2078C90.143 15.8149 90.1055 15.5883 90.1012 15.5745C90.0637 15.3293 89.931 15.1089 89.7312 14.9621C89.5315 14.8151 89.282 14.7535 89.0368 14.7909C88.7916 14.8283 88.5717 14.9616 88.4246 15.1614C88.2782 15.3613 88.2169 15.6113 88.2537 15.8565C88.3323 16.3107 88.4368 16.7599 88.5681 17.2017L77.1153 24.0945C77.1845 21.9772 77.2487 20.0957 77.2768 19.148C77.6323 8.52462 39.2283 7.28563 38.8866 17.8905Z" fill="#444343"/>
<path d="M66.7935 27.1132L71.5039 26.1424C71.5039 26.1424 68.1327 22.3193 61.3811 24.5753C63.9672 22.213 62.5772 18.7782 62.5772 18.7782C61.141 21.0249 49.6465 24.3903 44.8991 26.5815L38.8218 19.8091C38.8495 19.0093 38.8725 18.3436 38.8864 17.8905C39.2281 7.25795 77.6322 8.52463 77.2861 19.1387C77.258 20.0864 77.1931 21.968 77.1238 24.0852C77.0546 26.2025 76.9854 28.4446 76.9255 30.3169C74.279 28.967 68.419 27.52 66.7935 27.1132Z" fill="#353535"/>
<path d="M89.0392 14.7887C89.1597 14.7696 89.283 14.7746 89.4012 14.8034C89.5195 14.8323 89.6313 14.8843 89.7294 14.9564C89.8281 15.0286 89.9111 15.1196 89.9738 15.2241C90.0373 15.3287 90.0784 15.4446 90.0964 15.5653C90.0964 15.5653 90.1382 15.8057 90.2356 16.1986C90.8752 18.6192 91.9727 20.8945 93.4676 22.9019C95.1009 25.1292 97.1547 27.014 99.5127 28.4493C102.175 30.0407 105.092 31.159 108.135 31.7546C107.93 32.006 107.796 32.3077 107.747 32.6284C107.699 32.9597 107.745 33.2978 107.881 33.6038C104.557 32.9648 101.372 31.7425 98.4736 29.9933C94.8846 27.8041 91.972 24.6611 90.0596 20.914C89.4561 19.7305 88.9657 18.4921 88.5958 17.2157C88.4645 16.7739 88.36 16.3247 88.2821 15.8704C88.259 15.7495 88.2612 15.6253 88.2871 15.505C88.3131 15.3848 88.3628 15.271 88.4335 15.1703C88.5042 15.0695 88.5936 14.9838 88.6982 14.9184C88.802 14.8528 88.9181 14.8087 89.0392 14.7887Z" fill="#353535"/>
<path d="M111.335 33.137C111.391 32.7449 111.316 32.3453 111.123 31.9998C113.843 32.1939 118.391 34.265 118.973 34.7134C119.482 35.0878 119.435 35.883 119.117 36.7937L115.242 35.0231L118.793 37.5704C118.602 37.9332 118.391 38.2851 118.161 38.6243L111.829 34.7504L116.937 40.1083C115.963 41.0698 114.919 41.6246 114.272 41.1484C113.626 40.6723 110.577 37.2421 109.474 34.7134C109.924 34.7278 110.363 34.5746 110.707 34.2833C111.051 33.9921 111.275 33.5837 111.335 33.137Z" fill="#353535"/>
<path d="M108.116 31.7407C108.301 31.5055 108.542 31.32 108.817 31.2009C109.091 31.0819 109.391 31.033 109.689 31.0586C109.987 31.0843 110.274 31.1838 110.525 31.348C110.775 31.5122 110.98 31.7361 111.122 31.9995C111.28 32.2801 111.36 32.5976 111.353 32.9192C111.347 33.2408 111.255 33.555 111.087 33.8292C110.919 34.1033 110.681 34.3278 110.398 34.4791C110.113 34.6305 109.795 34.7032 109.474 34.6901C109.406 34.6946 109.338 34.6946 109.27 34.6901C108.966 34.6415 108.678 34.5157 108.436 34.3248C108.194 34.1338 108.004 33.884 107.885 33.5991C107.75 33.2931 107.704 32.9549 107.751 32.6237C107.792 32.302 107.918 31.9972 108.116 31.7407Z" fill="#F9B233"/>
<path d="M82.1352 43.1961C81.3455 43.1961 70.5897 44.9667 67.0015 47.9346C67.1908 47.7496 65.6161 48.8314 65.8377 48.6557C65.3759 49.2336 64.9695 49.7791 64.6047 50.246C63.0345 52.2801 60.744 51.0827 60.1297 50.1813C59.7603 49.6358 59.3539 49.0024 58.9198 48.3044C59.1877 48.6049 59.4555 48.91 59.7142 49.2289C58.1515 48.6554 56.8611 47.5154 56.0982 46.0345C54.1725 42.5721 33.6636 46.7696 27.503 42.8586C25.8729 41.8231 27.4476 36.6917 28.1819 32.1197L29.1055 25.8788C28.8806 23.9705 28.9962 22.0373 29.4472 20.1695C30.0944 17.5952 31.2432 15.1743 32.8277 13.0457L38.8543 19.7674L44.9317 26.5398C49.6652 24.3486 61.1734 20.9924 62.6097 18.7365C62.6097 18.7365 63.9951 22.1712 61.4136 24.5336C68.1606 22.2776 71.5364 26.1007 71.5364 26.1007L66.8259 27.0715C68.4516 27.4783 74.3074 28.9206 76.9532 30.2751C77.0275 30.31 77.1003 30.3485 77.1703 30.3907L85.303 19.342C86.6984 21.4946 87.568 23.946 87.8406 26.4977C88.1132 29.0494 87.7822 31.6294 86.8729 34.0289C86.5635 35.2216 86.2729 38.1571 85.6124 39.9416C84.416 43.1868 83.0726 43.2007 82.1352 43.1961Z" fill="#607BB0"/>
<path d="M74.4321 81.8942C75.2044 81.5432 75.9392 81.1684 76.6351 80.7706C88.9929 73.8042 90.9507 60.3887 90.9507 60.3887L89.5654 57.467L87.6025 56.6949L87.035 51.5219L87.7965 52.5898C87.3675 49.867 86.4113 44.3796 85.0029 40.3577C83.8527 40.7137 82.5641 41.0465 81.1976 41.384C87.141 48.5725 86.0002 56.2188 86.0002 56.2188C86.0002 56.2188 83.5665 70.0875 75.6097 71.1646C73.8408 71.4049 70.8114 69.468 67.9944 67.2444C67.9944 68.4047 65.2235 70.2354 59.9405 68.9826C56.246 68.1042 55.7842 70.4434 54.8975 66.7867C51.9587 68.5293 48.6498 69.551 45.2411 69.7685C42.7357 69.9038 40.2402 69.3592 38.0184 68.1921C30.5187 64.4013 27.0043 55.5762 29.4981 47.5416C30.5464 44.167 31.9872 40.4871 33.8576 37.658C34.0793 37.3251 34.3194 37.0015 34.5411 36.6963C33.1556 36.4144 31.8071 36.1093 30.588 35.7349C28.8543 38.2697 27.476 41.0306 26.4917 43.9405L27.6139 42.6137L26.7826 50.6482L21.9198 52.0629L19.209 55.4468C19.209 55.4468 19.7401 63.2549 26.2285 70.6144C27.8392 72.4225 29.6174 74.0747 31.5393 75.5471C33.9001 77.3612 36.4393 78.9307 39.1175 80.2297C39.6486 80.4887 40.1982 80.7433 40.7523 80.9835C43.5869 82.2286 46.5408 83.181 49.5682 83.8269C49.5682 83.8269 56.6801 85.0289 59.0769 85.2137C61.1696 85.3518 63.27 85.1058 65.2743 84.488C67.4183 84.2002 69.5304 83.7111 71.5826 83.0271L72.0445 82.8602C72.8817 82.5581 73.6778 82.2366 74.4321 81.8942Z" fill="#607BB0"/>
<path d="M66.96 55.2156C66.9 55.9322 66.549 63.3334 66.5767 63.9991C65.6208 63.1716 62.2819 62.6816 61.6677 62.6908C59.8482 62.6446 57.1974 62.5568 54.953 64.859C55.9782 63.0099 56.5232 60.5689 56.7172 58.1604C56.7448 57.7952 56.9896 56.1032 56.9942 55.7426L56.7956 54.2818C57.082 50.7499 54.8468 47.4955 53.2812 45.036C54.5559 45.9606 55.8351 42.9557 56.9757 44.2039C57.4099 44.8973 60.2961 49.4832 60.6702 50.0287C61.2798 50.9302 61.192 51.6375 62.7622 49.6035C63.127 49.1412 65.0712 47.7312 65.533 47.1488C66.5398 46.2935 71.9568 44.1623 73.1023 44.2039C70.2296 47.7312 66.9646 54.9429 66.96 55.2156Z" fill="#607BB0"/>
<path d="M69.5552 64.258C70.6344 65.4501 72.1135 66.2036 73.7115 66.3753C78.2553 66.7729 80.9523 63.2271 81.5299 56.7828C81.5666 56.3621 81.6964 54.5361 81.7008 54.1247C82.1623 48.7066 71.5687 47.2967 68.1374 45.9145C69.255 45.6232 80.1078 41.6475 81.165 41.384C87.1084 48.5726 85.9676 56.2188 85.9676 56.2188C85.9676 56.2188 83.5339 70.0875 75.5771 71.1646C73.8082 71.405 70.779 69.468 67.9619 67.2444C67.9598 66.6535 68.1042 66.0713 68.3823 65.5501C68.6603 65.0288 69.0634 64.5849 69.5552 64.258Z" fill="#607BB0"/>
<path d="M48.5614 40.8756C46.0353 42.6416 43.4076 43.3812 39.5608 50.7917C36.9977 55.715 37.441 65.4462 47.1298 66.135C49.8452 66.3291 52.4221 65.0717 54.3848 62.8759C54.3785 64.191 54.5447 65.5012 54.8789 66.7729C51.9401 68.5155 48.6312 69.5373 45.2225 69.7547C42.7171 69.8901 40.2216 69.3454 37.9998 68.1783C30.5001 64.3875 26.9857 55.5625 29.4795 47.5279C30.5278 44.1532 31.9686 40.4734 33.8389 37.6442C34.0606 37.3114 34.3007 36.9877 34.5224 36.6826C38.3231 37.4546 44.2851 39.5997 48.5614 40.8756Z" fill="#607BB0"/>
<path d="M55.5392 46.2012C53.5257 43.0668 51.7616 42.3365 48.5151 42.2163C44.599 42.0683 39.5329 46.4693 37.8935 51.3002C36.1248 56.5611 37.0345 68.0998 46.7232 68.7886C49.4433 68.9827 52.0156 67.7253 53.9828 65.5248C54.0106 64.9007 54.7865 65.155 54.7865 65.155C54.7865 65.155 54.6063 64.2304 55.6546 63.1533C56.7452 61.1572 57.3955 58.9502 57.5619 56.6813C57.5896 56.316 57.6081 55.9554 57.6127 55.5949V55.4839C57.9444 52.2465 57.2167 48.9888 55.5392 46.2012ZM56.3242 56.6674C55.8624 62.5893 51.8077 67.0966 47.3052 66.736C42.8025 66.3754 39.5421 61.2718 40.0178 55.3638C40.4934 49.4557 44.1464 46.8437 48.649 47.2136C53.1516 47.5835 56.7999 50.7409 56.3242 56.6674Z" fill="#254972"/>
<path d="M48.76 47.1996C44.2573 46.8067 40.2858 50.8656 39.884 56.2605C39.4822 61.6554 42.8072 66.343 47.3053 66.7359C51.8032 67.1289 55.7794 63.0653 56.1766 57.6751C56.5737 52.2848 53.2579 47.588 48.76 47.1996ZM54.2001 57.541C53.8629 61.623 51.0967 64.6926 48.0256 64.406C44.9546 64.1194 42.7333 60.5782 43.075 56.4963C43.1518 55.5223 43.3792 54.5663 43.7493 53.6624C43.5401 53.2899 43.4469 52.8633 43.4815 52.4373C43.5234 52.1212 43.6276 51.8165 43.7877 51.5408C43.9478 51.2651 44.1608 51.0238 44.4145 50.8309C44.6682 50.6379 44.9575 50.4972 45.2658 50.4166C45.5741 50.3361 45.8953 50.3174 46.2107 50.3617L46.3631 50.3848C47.213 49.8154 48.23 49.5499 49.2495 49.6313C52.3205 49.9225 54.5371 53.4636 54.2001 57.541Z" fill="white"/>
<path d="M54.999 58.424C54.4587 62.5845 51.5447 65.631 48.4876 65.2103C45.4304 64.7897 43.4077 61.0775 43.9249 56.8892C44.0487 55.8935 44.3227 54.9224 44.7377 54.0091C44.9182 54.3781 45.1835 54.6991 45.5118 54.9458C45.84 55.1924 46.222 55.3578 46.6264 55.4284C46.433 55.925 46.3012 56.4436 46.2339 56.9724C45.883 59.6768 47.213 62.0945 49.1941 62.3627C49.5426 62.4102 49.897 62.3897 50.2378 62.3026C50.3213 62.5463 50.471 62.7618 50.67 62.9251C50.869 63.0884 51.1095 63.193 51.3646 63.2271C51.5315 63.2562 51.7025 63.2518 51.8677 63.2142C52.0329 63.1766 52.189 63.1065 52.3268 63.008C52.4648 62.9095 52.5818 62.7846 52.671 62.6405C52.7604 62.4963 52.8202 62.3359 52.847 62.1685C52.875 61.9227 52.8292 61.6741 52.7158 61.4544C52.6023 61.2346 52.4261 61.0536 52.2097 60.9342C52.8771 60.0676 53.2954 59.0349 53.4196 57.9478C53.7706 55.2388 52.4452 52.8257 50.4594 52.5529C50.1515 52.5139 49.8391 52.528 49.5358 52.5945C49.4084 52.1261 49.1507 51.7035 48.7925 51.3761C48.4344 51.0487 47.9907 50.83 47.5131 50.7454C48.3841 50.1991 49.4161 49.969 50.4364 50.0935C53.4889 50.5327 55.5347 54.2541 54.999 58.424Z" fill="#F9B233"/>
<path d="M49.5823 53.4543C49.6168 53.1762 49.5995 52.8941 49.5315 52.6222C49.8347 52.5557 50.1471 52.5416 50.4551 52.5806C52.4409 52.8534 53.7663 55.2665 53.4153 57.9755C53.2911 59.0626 52.8727 60.0952 52.2053 60.9619C52.044 60.8648 51.8651 60.8003 51.6789 60.7723C51.5115 60.7439 51.3401 60.7489 51.1746 60.787C51.0091 60.8251 50.8527 60.8956 50.7145 60.9944C50.5763 61.0932 50.459 61.2184 50.3693 61.3627C50.2796 61.5071 50.2193 61.6678 50.1919 61.8356C50.1732 61.9985 50.1873 62.1636 50.2335 62.321C49.8927 62.4082 49.5383 62.4285 49.1898 62.381C47.2086 62.113 45.8786 59.6952 46.2295 56.9908C46.2969 56.462 46.4287 55.9435 46.6221 55.4468L46.7468 55.4699C47.0654 55.5255 47.3918 55.5174 47.7072 55.4459C48.0225 55.3745 48.3207 55.2413 48.5843 55.0538C48.848 54.8665 49.0719 54.6286 49.2432 54.354C49.4145 54.0795 49.5298 53.7737 49.5823 53.4543Z" fill="#543419"/>
<path d="M49.5315 52.6224C49.5995 52.8942 49.6167 53.1763 49.5823 53.4545C49.5297 53.7734 49.4146 54.0787 49.2436 54.353C49.0726 54.6272 48.8491 54.8648 48.586 55.0522C48.3229 55.2395 48.0253 55.3729 47.7103 55.4446C47.3955 55.5163 47.0696 55.525 46.7514 55.4701L46.6267 55.4469C46.2223 55.3764 45.8403 55.2111 45.512 54.9644C45.1838 54.7177 44.9185 54.3967 44.7379 54.0277C44.5483 53.6343 44.4761 53.1945 44.5301 52.7611C44.5827 52.442 44.6977 52.1364 44.8687 51.862C45.0396 51.5876 45.263 51.3496 45.5261 51.162C45.7891 50.9742 46.0867 50.8404 46.4015 50.7681C46.7164 50.6959 47.0425 50.6866 47.361 50.7408L47.5087 50.7686C47.9869 50.8536 48.431 51.073 48.7892 51.4012C49.1474 51.7295 49.4048 52.153 49.5315 52.6224Z" fill="white"/>
<path d="M51.6835 60.7723C51.8697 60.8004 52.0486 60.8647 52.21 60.9618C52.4264 61.0812 52.6026 61.2623 52.716 61.482C52.8295 61.7018 52.8752 61.9504 52.8473 62.1962C52.8205 62.3636 52.7606 62.5241 52.6713 62.6682C52.582 62.8123 52.465 62.9373 52.3271 63.0357C52.1892 63.1342 52.0331 63.2043 51.8679 63.2419C51.7028 63.2795 51.5317 63.2839 51.3649 63.2548C51.1098 63.2207 50.8693 63.1161 50.6702 62.9528C50.4712 62.7895 50.3216 62.5739 50.2381 62.3302C50.1918 62.1729 50.1778 62.0078 50.1965 61.8449C50.2228 61.6763 50.2823 61.5146 50.3715 61.3691C50.4608 61.2237 50.5779 61.0975 50.7162 60.9977C50.8545 60.898 51.0113 60.8267 51.1773 60.788C51.3433 60.7493 51.5154 60.744 51.6835 60.7723Z" fill="white"/>
<path d="M82.6804 56.843C82.6804 57.2498 82.6523 57.6659 82.6155 58.0819C82.0386 64.5262 77.8865 69.4265 73.3377 69.0289C71.74 68.8572 70.2608 68.1037 69.1816 66.9116C69.5312 66.6608 69.9114 66.4557 70.313 66.3014C71.0815 66.9424 72.024 67.3384 73.0189 67.4386C76.7139 67.7668 80.0664 63.6802 80.5423 58.3177C81.0175 52.9551 78.3256 49.9965 74.645 49.6821C70.9642 49.3677 67.5653 51.6977 67.0942 57.0788C66.9827 58.1011 66.958 59.1311 67.0203 60.1576C66.9419 60.079 67.3667 61.9605 67.2328 62.3304C67.0203 62.9221 66.4431 61.8264 66.3092 61.7062C66.1753 61.586 66.106 59.5797 66.106 58.8077C66.3379 55.7282 67.1298 52.7171 68.4427 49.9225C69.551 47.7728 72.9223 44.8373 77.2497 46.7512C80.6253 48.2351 83.1513 51.4203 82.6804 56.843Z" fill="#254972"/>
<path d="M74.5799 49.1228C78.2741 49.4695 80.9156 53.6625 80.5182 58.4841C80.1216 63.3057 76.8889 68.4187 73.1939 68.072C72.2016 67.9795 71.2084 66.1119 70.4234 65.5201C70.4234 65.5201 69.9246 66.5742 69.9339 66.5695C70.2571 66.3106 71.19 64.7712 71.1207 64.0547C71.4975 64.217 71.8985 64.3154 72.3076 64.3459C75.0233 64.5493 77.3872 61.8264 77.6042 58.2576C77.8213 54.6888 75.7574 51.6377 73.0554 51.4342C72.1821 51.3755 71.3142 51.6062 70.585 52.0907C70.0621 52.1024 69.561 52.3024 69.1734 52.6538C68.7858 53.0053 68.5377 53.4848 68.4745 54.0046C68.4597 54.1855 68.4706 54.3676 68.5069 54.5454C68.0689 55.4805 67.8149 56.4913 67.7588 57.5226C67.6996 58.5115 67.8201 59.503 68.1143 60.4488C67.8696 60.213 67.5787 59.9496 67.2693 59.6722C67.1524 58.8578 67.126 58.033 67.1907 57.2128C67.5879 52.405 70.8852 48.7761 74.5799 49.1228Z" fill="white"/>
<path d="M26.764 50.6483L21.9011 52.0675L18.8394 52.9597L26.4684 43.9451L27.5906 42.6138L26.764 50.6483Z" fill="#607BB0"/>
<path d="M87.0161 51.522L87.7733 52.5898L91.9067 58.4008L89.5465 57.467L87.5793 56.695L87.0161 51.522Z" fill="#607BB0"/>
<path d="M36.7116 28.255C47.1531 31.3338 52.0206 37.3343 54.9068 41.4209C56.6156 43.848 57.4976 45.281 57.4976 45.281C57.2067 44.9898 56.9111 44.7171 56.6109 44.449C55.4051 43.3654 54.0858 42.4153 52.6763 41.6151C49.7621 40.0162 46.5988 38.9221 43.3201 38.3791C38.9283 37.5609 34.5458 37.4545 30.6712 37.0939C29.3176 36.9839 27.9704 36.8049 26.635 36.5577C23.938 36.0399 21.7122 35.1477 20.239 33.4141C23.3238 32.901 25.6929 33.2523 27.0322 32.8362C20.3452 29.3044 15.7871 23.2161 15.7871 23.2161L24.5615 25.3379L36.7116 28.255Z" fill="#1B2B4A"/>
<path d="M81.2669 43.7094C78.4394 43.7673 75.6256 44.1095 72.8666 44.7311C71.5379 45.0491 70.2535 45.5305 69.0428 46.1642C68.8073 46.2936 68.581 46.4277 68.3501 46.571C71.1533 43.335 73.6562 40.4966 77.3137 38.9756C82.6197 36.7751 88.4896 36.2435 92.6461 36.2019C94.4964 36.1717 96.3468 36.2536 98.1878 36.4469C95.9942 38.2821 93.5092 39.7369 90.8353 40.7508C91.6942 40.9404 92.6828 41.1391 93.8648 41.3379C93.1213 42.6138 91.1635 43.127 88.5775 43.3719C87.3855 43.4829 86.0515 43.543 84.6475 43.5892C83.5528 43.6262 82.4307 43.6586 81.2669 43.7094Z" fill="#1B2B4A"/>
<path d="M78.9391 60.8695C78.616 64.0547 76.3301 66.417 73.8365 66.1073C71.3425 65.7975 69.5737 63.0007 69.897 59.8155C69.9726 59.0537 70.1706 58.3091 70.4836 57.6104C70.6473 57.8959 70.8738 58.1403 71.1458 58.3253C71.4178 58.5103 71.7282 58.631 72.0536 58.6783C71.9117 59.0579 71.8186 59.454 71.7766 59.8571C71.5688 61.9236 72.7 63.7542 74.3304 63.9437C74.6145 63.9742 74.9023 63.9554 75.1799 63.8883C75.2549 64.0788 75.3811 64.2451 75.5441 64.369C75.7063 64.4929 75.9003 64.5697 76.1037 64.591C76.2349 64.6149 76.3697 64.6125 76.5003 64.5841C76.6308 64.5557 76.7541 64.5016 76.8637 64.4251C76.9733 64.3486 77.0663 64.2512 77.1385 64.1384C77.2098 64.0256 77.2582 63.8998 77.2812 63.7681C77.2913 63.5769 77.2437 63.3872 77.1464 63.2226C77.0483 63.0581 76.9041 62.9262 76.7317 62.8435C77.2473 62.1756 77.5603 61.3731 77.6324 60.532C77.8401 58.461 76.7087 56.635 75.0782 56.4454C74.8273 56.4159 74.5727 56.4284 74.3261 56.4825C74.1977 56.1177 73.972 55.7952 73.6728 55.5506C73.3742 55.306 73.0137 55.1485 72.6308 55.0956C73.3389 54.6662 74.1675 54.481 74.991 54.5686C77.5033 54.8691 79.2621 57.6751 78.9391 60.8695Z" fill="#F9B233"/>
<path d="M74.4042 57.1296C74.4251 56.9162 74.4027 56.701 74.34 56.4962C74.5873 56.4422 74.8412 56.4296 75.0928 56.4592C76.7139 56.6487 77.8634 58.4748 77.6463 60.5459C77.5742 61.3869 77.2612 62.1893 76.7456 62.8573C76.6108 62.7844 76.4637 62.7373 76.3115 62.7186C76.1803 62.694 76.0454 62.6959 75.9149 62.7241C75.7837 62.7523 75.6604 62.8063 75.5507 62.8829C75.4411 62.9595 75.3474 63.0572 75.276 63.1703C75.2046 63.2833 75.1563 63.4096 75.1339 63.5415C75.1217 63.6666 75.1375 63.793 75.1801 63.9113C74.9025 63.9785 74.6147 63.9972 74.3306 63.9668C72.7096 63.7773 71.5598 61.9466 71.7768 59.8802C71.8188 59.477 71.9119 59.0809 72.0539 58.7013H72.1557C72.4067 58.7479 72.6641 58.744 72.9136 58.6899C73.1631 58.6359 73.3989 58.5327 73.6088 58.3864C73.8179 58.2402 73.996 58.0537 74.1323 57.838C74.2693 57.6222 74.3616 57.3814 74.4042 57.1296Z" fill="#543419"/>
<path d="M74.3399 56.4962C74.4027 56.701 74.425 56.9162 74.4048 57.1296C74.3609 57.3806 74.2671 57.6204 74.1301 57.8351C73.9931 58.0499 73.815 58.2352 73.6058 58.3805C73.3967 58.5259 73.1609 58.6282 72.9121 58.6817C72.6626 58.7352 72.4059 58.7387 72.1557 58.6921H72.0539C71.7285 58.6448 71.4181 58.5241 71.1461 58.3391C70.874 58.1541 70.6476 57.9097 70.4838 57.6242C70.318 57.3309 70.247 56.9934 70.2806 56.658C70.3234 56.4069 70.4157 56.1669 70.5522 55.9518C70.6887 55.7368 70.8666 55.5512 71.0755 55.4057C71.2844 55.2603 71.5202 55.1579 71.7691 55.1046C72.018 55.0514 72.2747 55.0483 72.5249 55.0955H72.6453C73.029 55.1496 73.391 55.3091 73.6902 55.5563C73.9895 55.8036 74.2137 56.1289 74.3399 56.4962Z" fill="white"/>
<path d="M76.3115 62.6954C76.4636 62.7142 76.6107 62.7612 76.7456 62.8341C76.9179 62.9168 77.0621 63.0487 77.1602 63.2132C77.2583 63.3778 77.3052 63.5675 77.2951 63.7587C77.2727 63.8904 77.2237 64.0162 77.1523 64.129C77.0802 64.2418 76.9871 64.3392 76.8775 64.4157C76.7679 64.4922 76.6446 64.5463 76.5141 64.5748C76.3836 64.6032 76.2487 64.6055 76.1175 64.5816C75.9141 64.5603 75.7209 64.4835 75.5579 64.3596C75.3949 64.2357 75.2687 64.0695 75.1937 63.8789C75.1512 63.7607 75.1353 63.6343 75.1476 63.509C75.1952 63.2471 75.3444 63.0145 75.5622 62.862C75.78 62.7095 76.0497 62.6496 76.3115 62.6954Z" fill="white"/>
<path d="M180.966 79.4581L172.192 122.65H95.8875C95.4837 122.65 95.0957 122.489 94.8101 122.203C94.5239 121.917 94.3638 121.529 94.3638 121.124C94.3638 120.924 94.4027 120.726 94.4799 120.541C94.5563 120.356 94.6688 120.188 94.8101 120.047C94.9515 119.906 95.1195 119.794 95.3048 119.718C95.4894 119.642 95.6877 119.603 95.8875 119.604H111.243L119.375 79.4307C119.451 79.056 119.653 78.7193 119.948 78.4762C120.242 78.2331 120.61 78.0986 120.992 78.0943L179.295 77.4562C179.545 77.4505 179.794 77.5016 180.021 77.6051C180.249 77.7087 180.451 77.8619 180.612 78.0547C180.772 78.2468 180.888 78.4726 180.949 78.7157C181.01 78.9589 181.017 79.2128 180.966 79.4581Z" fill="#E9E8E8"/>
<path d="M180.966 79.4581C180.966 79.4581 180.966 79.4164 180.966 79.3286C180.984 79.1984 180.984 79.0661 180.966 78.9359C180.938 78.6769 180.851 78.4288 180.711 78.2101C180.57 77.9907 180.381 77.8073 180.158 77.6735C180.003 77.58 179.832 77.5124 179.655 77.475C179.457 77.4376 179.256 77.4239 179.054 77.4333H177.669L174.238 77.4613L152.191 77.6692L136.822 77.826L128.214 77.9145L123.697 77.9605L121.388 77.9835C121.194 77.9835 121.01 77.9835 120.798 77.9835C120.594 78.0073 120.395 78.0655 120.211 78.1547C119.837 78.3403 119.539 78.651 119.371 79.033C119.298 79.2229 119.245 79.4192 119.213 79.6199L119.094 80.2026L118.858 81.3721C118.701 82.1519 118.547 82.9381 118.396 83.73C118.088 85.311 117.763 86.9122 117.421 88.5328C116.759 91.7754 116.085 95.0899 115.399 98.477C114.013 105.249 112.591 112.295 111.118 119.552L111.22 119.469H96.1182C95.9192 119.46 95.7194 119.47 95.5226 119.501C95.1173 119.59 94.7603 119.829 94.5253 120.172C94.394 120.36 94.3046 120.574 94.262 120.799C94.2195 121.025 94.2253 121.257 94.2786 121.479C94.3313 121.702 94.4315 121.912 94.5707 122.094C94.7106 122.275 94.8873 122.425 95.0885 122.534C95.3098 122.652 95.5543 122.718 95.8045 122.728H136.333H172.155H172.22V122.663C174.903 109.387 177.092 98.5878 178.607 91.1035C179.354 87.3632 179.941 84.4507 180.338 82.4727C180.532 81.4879 180.685 80.7341 180.8 80.2213C180.916 79.7077 180.943 79.4538 180.943 79.4538C180.943 79.4538 180.883 79.7127 180.777 80.2162C180.671 80.7205 180.509 81.4786 180.315 82.4633C179.909 84.4414 179.308 87.3495 178.537 91.0848C177.009 98.5648 174.797 109.359 172.072 122.631L172.155 122.566H136.333H95.8225C95.6055 122.558 95.392 122.502 95.1995 122.4C94.9435 122.263 94.7351 122.049 94.6039 121.79C94.4726 121.53 94.425 121.236 94.4661 120.948C94.5072 120.659 94.6363 120.391 94.8353 120.179C95.0344 119.966 95.2932 119.82 95.5781 119.76C95.7598 119.733 95.9437 119.722 96.1276 119.728H111.316V119.645L115.583 98.5691C116.273 95.1791 116.946 91.8631 117.602 88.6205C117.931 87.0028 118.254 85.4016 118.572 83.8178C118.733 83.0272 118.89 82.2411 119.033 81.4599L119.269 80.2903L119.384 79.7077C119.415 79.5199 119.465 79.3358 119.532 79.1574C119.681 78.8158 119.947 78.5381 120.28 78.3719C120.446 78.2892 120.627 78.2374 120.811 78.2195C120.987 78.2195 121.19 78.2195 121.384 78.2195L123.693 78.1914L128.209 78.1411L136.822 78.0389L152.191 77.8584L174.233 77.5858L177.669 77.5397H179.054C179.252 77.5268 179.45 77.5376 179.646 77.5721C179.984 77.6419 180.291 77.8166 180.524 78.0713C180.757 78.3259 180.904 78.6482 180.943 78.9913C180.967 79.1459 180.974 79.302 180.966 79.4581Z" fill="#233237"/>
<path d="M148.331 101.75C149.723 101.75 150.853 100.62 150.853 99.2257C150.853 97.8317 149.723 96.7017 148.331 96.7017C146.938 96.7017 145.809 97.8317 145.809 99.2257C145.809 100.62 146.938 101.75 148.331 101.75Z" fill="white"/>
<path d="M180.892 79.8098C180.892 79.8098 180.804 79.8098 180.634 79.8098H176.893L165.986 79.8652L129.997 80.1191L124.792 80.1608H123.513C123.295 80.1522 123.076 80.1666 122.861 80.2025C122.641 80.2457 122.432 80.3299 122.243 80.4521C121.866 80.696 121.589 81.0686 121.467 81.5016C121.374 81.9267 121.301 82.3245 121.217 82.7359C120.575 85.972 119.952 89.129 119.37 92.1156C118.193 98.0973 117.131 103.483 116.234 108.004C115.339 112.526 114.637 116.187 114.138 118.72C113.898 119.983 113.708 120.962 113.579 121.637L113.441 122.395C113.408 122.566 113.399 122.654 113.399 122.654C113.399 122.654 113.422 122.571 113.459 122.4L113.621 121.646C113.759 120.972 113.958 119.996 114.221 118.739C114.729 116.206 115.468 112.549 116.382 108.037C117.297 103.525 118.368 98.1296 119.564 92.1573C120.16 89.1664 120.788 86.0274 121.411 82.7776C121.495 82.3705 121.573 81.9497 121.661 81.557C121.767 81.175 122.01 80.8463 122.344 80.6327C122.513 80.5262 122.699 80.4514 122.894 80.4104C123.097 80.3788 123.303 80.3665 123.508 80.3737H124.788L129.997 80.327L165.981 80.0083L176.889 79.8882L179.858 79.8465H180.629L180.892 79.8098Z" fill="#233237"/>
<path d="M37.1227 76.0557C35.0723 77.2296 26.4411 82.3193 19.3061 88.4542C19.4354 88.4542 19.5648 88.4218 19.7033 88.4125C23.347 88.2183 11.8525 108.624 11.8525 108.624L18.498 116.136C18.498 116.136 11.1091 113.899 16.2859 121.734C19.4863 122.659 24.4646 122.589 28.9857 121.535C33.5068 120.482 37.5475 118.466 38.9423 115.48C34.1071 109.053 30.2695 101.884 30.2695 94.0798C30.2695 85.8791 34.5088 80.6139 39.695 77.6086C38.8093 77.1396 37.9505 76.621 37.1227 76.0557ZM24.9541 96.2579C23.8586 100.754 23.8301 105.445 24.8709 109.955C24.7187 110.027 24.572 110.111 24.4323 110.205C23.0745 106.442 21.7214 102.693 19.8649 102.138C22.3172 101.777 24.0074 98.6524 24.9541 96.2579Z" fill="#607BB0"/>
<path d="M11.8707 108.624L11.6952 108.462C11.492 108.272 11.1364 107.916 10.7115 107.44C8.78118 105.268 5.44695 100.506 8.96593 96.299L9.65863 99.5352C9.65863 99.5352 9.65863 90.6641 14.6785 90.2663L14.5815 92.5364C14.5815 92.5364 15.9669 88.8795 19.3058 88.4357C19.4351 88.4357 19.5644 88.4033 19.7029 88.3939C23.3466 88.2184 11.8707 108.624 11.8707 108.624Z" fill="#607BB0"/>
<path d="M24.9539 96.2578C23.8584 100.754 23.8299 105.445 24.8707 109.955C24.7185 110.027 24.5718 110.111 24.432 110.205C23.0743 106.442 21.7212 102.693 19.8647 102.138C22.317 101.777 24.0072 98.6524 24.9539 96.2578Z" fill="#365AA1"/>
<path d="M66.1854 64.8925C66.2922 64.4429 65.5339 63.8774 64.4917 63.6294C63.4495 63.3815 62.5182 63.5449 62.4114 63.9945C62.3047 64.4441 63.063 65.0096 64.1051 65.2576C65.1473 65.5055 66.0787 65.3421 66.1854 64.8925Z" fill="#543419"/>
<path d="M70.6222 68.9318C71.054 68.787 71.4997 68.6879 71.9522 68.636H71.9753C72.2214 68.556 72.4348 68.3992 72.5855 68.1888C72.7355 67.9783 72.8148 67.7251 72.8112 67.4664C72.7557 66.8468 72.1644 65.9639 70.4052 64.7204C70.4052 64.7204 70.0126 64.3598 69.4123 63.8467C69.1259 63.6016 68.7981 63.3289 68.4424 63.0377C68.0868 62.7464 67.5927 62.3627 67.1448 62.0344C66.041 61.2255 64.9096 60.5274 64.1984 60.435C62.0741 60.1067 57.5715 62.3303 54.9253 63.7819C53.6923 64.4568 52.8564 64.9654 52.8564 64.9654C52.8564 64.9654 52.9857 64.8914 52.9442 65.3814C52.9261 66.4561 53.1061 67.5249 53.4752 68.5342C54.4589 71.5622 56.8511 75.4688 61.1736 76.7858C67.3203 78.6351 70.4098 73.9014 70.4098 73.9014C69.3153 72.9771 68.7149 71.9363 68.7242 71.026C68.7334 70.1153 69.3383 69.3663 70.6222 68.9318ZM63.6673 62.0576C63.7597 62.1038 63.2702 61.133 63.4549 61.1792C66.1456 62.0419 68.506 63.7123 70.2158 65.9639C70.2158 65.9639 69.0012 64.8221 65.3299 65.4785C62.4205 66.0009 59.3633 66.269 58.7907 64.9376C58.3751 63.9761 61.7508 62.6956 63.6673 62.0576ZM62.8962 76.4255C62.0771 76.2909 61.2942 75.9903 60.596 75.5407C59.8978 75.0919 59.299 74.5035 58.8369 73.8137C63.6673 77.0771 67.6112 74.9185 67.6112 74.9185C67.6112 74.9185 66.4613 77.0915 62.8962 76.4255ZM68.3131 73.3648C68.3131 73.3648 66.9 75.4314 62.9146 74.7934C57.7931 73.9755 54.9576 68.2892 54.1403 66.3938C55.5534 68.4279 62.2958 67.0687 65.5331 66.4493C70.3128 65.5248 71.712 68.1135 71.712 68.1135C71.712 68.1135 65.159 68.2707 68.3131 73.3648Z" fill="#F3934C"/>
<path d="M71.7168 68.1135C71.7168 68.1135 70.3314 65.5293 65.5378 66.4492C62.3052 67.0687 55.5581 68.4278 54.145 66.3938C54.9578 68.2891 57.7933 73.9755 62.9193 74.7933C66.9047 75.4313 68.3179 73.3648 68.3179 73.3648C65.1591 68.2706 71.7168 68.1135 71.7168 68.1135ZM58.3244 71.2108C58.86 70.3648 64.7435 72.1355 66.3321 74.0309C64.4203 74.6732 61.109 74.9091 58.3198 71.2108H58.3244Z" fill="#543419"/>
<path d="M65.3438 65.4784C69.0152 64.822 70.2297 65.9638 70.2297 65.9638C68.52 63.7122 66.1596 62.0417 63.4689 61.1792C63.2842 61.119 63.7737 62.1037 63.6813 62.0575C61.7649 62.6954 58.389 63.976 58.8046 64.9376C59.3634 66.2689 62.4206 65.9962 65.3438 65.4784ZM64.1893 63.9898C64.9513 64.1193 65.5517 64.4521 65.524 64.7341C65.4962 65.0161 64.859 65.1317 64.0969 65.0022C63.3349 64.8728 62.7346 64.54 62.7577 64.2534C62.7808 63.9667 63.4135 63.8558 64.1755 63.9898H64.1893Z" fill="#F8BD72"/>
<path d="M58.3193 71.2109C61.0902 74.9093 64.4337 74.6733 66.327 74.031C64.7384 72.1493 58.8781 70.365 58.3193 71.2109Z" fill="#E30613"/>
<path d="M67.7542 74.3173L65.2881 75.3948L61.6675 74.9323C61.6675 74.9323 58.5688 73.421 58.5133 73.4807C58.458 73.5411 59.5109 75.5703 59.5109 75.5703L63.5379 76.9571L67.4032 76.227L67.7542 74.3173Z" fill="#F3934C"/>
<path d="M60.3746 79.079C59.7862 78.8992 59.2432 78.5956 58.782 78.1878C58.3208 77.7806 57.9521 77.2786 57.7007 76.7168C61.2797 79.5278 62.8267 78.423 62.8267 78.423C62.3927 79.2782 61.1273 79.3286 60.3746 79.079Z" fill="white"/>
</g>
<defs>
<clipPath id="clip0_169_3">
<rect width="181" height="123" fill="white"/>
</clipPath>
</defs>
</svg>
